<?xml version="1.0" encoding="UTF-8"?>
<!DOCTYPE svg PUBLIC "-//W3C//DTD SVG 1.1//EN" "http://www.w3.org/Graphics/SVG/1.1/DTD/svg11.dtd">
<svg xmlns="http://www.w3.org/2000/svg" version="1.1" width="312px" height="311px" style="shape-rendering:geometricPrecision; text-rendering:geometricPrecision; image-rendering:optimizeQuality; fill-rule:evenodd; clip-rule:evenodd" xmlns:xlink="http://www.w3.org/1999/xlink">
<g><path style="opacity:1" fill="#000000" d="M -0.5,-0.5 C 103.5,-0.5 207.5,-0.5 311.5,-0.5C 311.5,103.167 311.5,206.833 311.5,310.5C 207.5,310.5 103.5,310.5 -0.5,310.5C -0.5,206.833 -0.5,103.167 -0.5,-0.5 Z"/></g>
<g><path style="opacity:1" fill="#fefffe" d="M 82.5,47.5 C 86.1667,47.5 89.8333,47.5 93.5,47.5C 93.9745,75.2305 93.4745,102.897 92,130.5C 90.6811,132.487 88.8477,133.654 86.5,134C 74.1712,134.5 61.8378,134.667 49.5,134.5C 49.5,130.833 49.5,127.167 49.5,123.5C 60.5,123.5 71.5,123.5 82.5,123.5C 82.5,98.1667 82.5,72.8333 82.5,47.5 Z"/></g>
<g><path style="opacity:1" fill="#fefffe" d="M 125.5,47.5 C 141.17,47.3334 156.837,47.5001 172.5,48C 174.939,48.7739 176.773,50.2739 178,52.5C 178.5,79.8313 178.667,107.165 178.5,134.5C 174.833,134.5 171.167,134.5 167.5,134.5C 167.5,109.167 167.5,83.8333 167.5,58.5C 154.833,58.5 142.167,58.5 129.5,58.5C 129.5,83.8333 129.5,109.167 129.5,134.5C 125.833,134.5 122.167,134.5 118.5,134.5C 118.333,108.831 118.5,83.1645 119,57.5C 118.95,52.5736 121.116,49.2403 125.5,47.5 Z"/></g>
<g><path style="opacity:1" fill="#fefffe" d="M 201.5,47.5 C 210.833,47.5 220.167,47.5 229.5,47.5C 229.5,51.1667 229.5,54.8333 229.5,58.5C 220.167,58.5 210.833,58.5 201.5,58.5C 201.5,54.8333 201.5,51.1667 201.5,47.5 Z"/></g>
<g><path style="opacity:1" fill="#fefffe" d="M 250.5,47.5 C 254.167,47.5 257.833,47.5 261.5,47.5C 261.967,62.5967 261.467,77.5967 260,92.5C 258.681,94.4875 256.848,95.6541 254.5,96C 240.504,96.4999 226.504,96.6666 212.5,96.5C 212.5,109.167 212.5,121.833 212.5,134.5C 208.833,134.5 205.167,134.5 201.5,134.5C 201.333,121.496 201.5,108.496 202,95.5C 202.198,90.9711 204.365,87.8044 208.5,86C 222.496,85.5001 236.496,85.3334 250.5,85.5C 250.5,72.8333 250.5,60.1667 250.5,47.5 Z"/></g>
<g><path style="opacity:1" fill="#fefffe" d="M 140.5,101.5 C 146.167,101.5 151.833,101.5 157.5,101.5C 157.5,105.167 157.5,108.833 157.5,112.5C 151.833,112.5 146.167,112.5 140.5,112.5C 140.5,108.833 140.5,105.167 140.5,101.5 Z"/></g>
<g><path style="opacity:1" fill="#fefffe" d="M 234.5,123.5 C 243.5,123.5 252.5,123.5 261.5,123.5C 261.5,127.167 261.5,130.833 261.5,134.5C 252.5,134.5 243.5,134.5 234.5,134.5C 234.5,130.833 234.5,127.167 234.5,123.5 Z"/></g>
<g><path style="opacity:1" fill="#fefffe" d="M 42.5,168.5 C 60.5031,168.333 78.5031,168.5 96.5,169C 98.9393,169.774 100.773,171.274 102,173.5C 102.667,186.167 102.667,198.833 102,211.5C 101.215,213.286 100.049,214.786 98.5,216C 83.5717,217.451 68.5717,217.951 53.5,217.5C 53.5,230.167 53.5,242.833 53.5,255.5C 49.8333,255.5 46.1667,255.5 42.5,255.5C 42.5,239.167 42.5,222.833 42.5,206.5C 58.8333,206.5 75.1667,206.5 91.5,206.5C 91.5,197.5 91.5,188.5 91.5,179.5C 75.1667,179.5 58.8333,179.5 42.5,179.5C 42.5,175.833 42.5,172.167 42.5,168.5 Z"/></g>
<g><path style="opacity:1" fill="#fefffe" d="M 132.5,168.5 C 148.17,168.333 163.837,168.5 179.5,169C 181.939,169.774 183.773,171.274 185,173.5C 185.667,198.833 185.667,224.167 185,249.5C 183.74,252.428 181.573,254.261 178.5,255C 162.408,255.969 146.408,255.636 130.5,254C 127.312,252.066 125.812,249.232 126,245.5C 125.5,227.17 125.333,208.836 125.5,190.5C 129.167,190.5 132.833,190.5 136.5,190.5C 136.5,208.5 136.5,226.5 136.5,244.5C 149.167,244.5 161.833,244.5 174.5,244.5C 174.5,222.833 174.5,201.167 174.5,179.5C 158.163,179.667 141.83,179.5 125.5,179C 125.746,173.982 128.08,170.482 132.5,168.5 Z"/></g>
<g><path style="opacity:1" fill="#fefffe" d="M 208.5,168.5 C 226.503,168.333 244.503,168.5 262.5,169C 264.939,169.774 266.773,171.274 268,173.5C 268.667,186.167 268.667,198.833 268,211.5C 267.215,213.286 266.049,214.786 264.5,216C 249.572,217.451 234.572,217.951 219.5,217.5C 219.5,230.167 219.5,242.833 219.5,255.5C 215.833,255.5 212.167,255.5 208.5,255.5C 208.5,239.167 208.5,222.833 208.5,206.5C 224.833,206.5 241.167,206.5 257.5,206.5C 257.5,197.5 257.5,188.5 257.5,179.5C 241.167,179.5 224.833,179.5 208.5,179.5C 208.5,175.833 208.5,172.167 208.5,168.5 Z"/></g>
<g><path style="opacity:1" fill="#fefffe" d="M 81.5,228.5 C 84.8333,228.5 88.1667,228.5 91.5,228.5C 91.5,237.5 91.5,246.5 91.5,255.5C 88.1667,255.5 84.8333,255.5 81.5,255.5C 81.5,246.5 81.5,237.5 81.5,228.5 Z"/></g>
<g><path style="opacity:1" fill="#fefffe" d="M 247.5,228.5 C 250.833,228.5 254.167,228.5 257.5,228.5C 257.5,237.5 257.5,246.5 257.5,255.5C 254.167,255.5 250.833,255.5 247.5,255.5C 247.5,246.5 247.5,237.5 247.5,228.5 Z"/></g>
</svg>
